<svg width="1000" height="400" viewBox="0 0 1000 400" fill="none" xmlns="http://www.w3.org/2000/svg">
  <path d="M8 62H42V322H8V62Z" fill="#A6CE39"/>
  <path d="M94 62H128V322H94V62Z" fill="#A6CE39"/>
  <path d="M180 62H214V142H180V62Z" fill="#A6CE39"/>
  <path d="M180 242H214V322H180V242Z" fill="#A6CE39"/>
  <path d="M266 62H300V142H266V62Z" fill="#A6CE39"/>
  <path d="M266 242H300V322H266V242Z" fill="#A6CE39"/>
  <path d="M352 62H386V322H352V62Z" fill="#A6CE39"/>
  <path d="M438 62H472V322H438V62Z" fill="#A6CE39"/>
  <path d="M524 62H558V142H524V62Z" fill="#A6CE39"/>
  <path d="M524 242H558V322H524V242Z" fill="#A6CE39"/>
  <path d="M610 62H644V322H610V62Z" fill="#A6CE39"/>
  <path d="M696 62H730V322H696V62Z" fill="#A6CE39"/>
  <path d="M782 62H816V322H782V62Z" fill="#A6CE39"/>
  <path d="M868 62H902V322H868V62Z" fill="#A6CE39"/>
  <path d="M954 62H988V322H954V62Z" fill="#A6CE39"/>
</svg>